<mxfile host="app.diagrams.net" agent="Mozilla/5.0 (Windows NT 10.0; Win64; x64) AppleWebKit/537.36 (KHTML, like Gecko) Chrome/131.0.0.0 Safari/537.36" version="24.8.8">
  <diagram name="Page-1" id="gvOllTH9LuBP_hq7dgmy">
    <mxGraphModel dx="773" dy="1767" grid="1" gridSize="10" guides="1" tooltips="1" connect="1" arrows="1" fold="1" page="1" pageScale="1" pageWidth="850" pageHeight="1100" math="0" shadow="0">
      <root>
        <mxCell id="0" />
        <mxCell id="1" parent="0" />
        <mxCell id="SLBI1XKWDgRPpPdHED_y-2" value="" style="edgeStyle=orthogonalEdgeStyle;rounded=0;orthogonalLoop=1;jettySize=auto;html=1;entryX=0.5;entryY=0;entryDx=0;entryDy=0;" parent="1" source="PiIeFLG2h4lBq93euPG2-6" target="PiIeFLG2h4lBq93euPG2-8" edge="1">
          <mxGeometry relative="1" as="geometry">
            <mxPoint x="775" y="350" as="targetPoint" />
          </mxGeometry>
        </mxCell>
        <mxCell id="PiIeFLG2h4lBq93euPG2-6" value="Start" style="ellipse;whiteSpace=wrap;html=1;" parent="1" vertex="1">
          <mxGeometry x="615" y="70" width="120" height="80" as="geometry" />
        </mxCell>
        <mxCell id="PiIeFLG2h4lBq93euPG2-8" value="&lt;div&gt;Output :&lt;/div&gt;M&lt;span style=&quot;background-color: initial;&quot;&gt;enu&lt;/span&gt;&lt;div&gt;&lt;div&gt;1. Daftar Akun&lt;/div&gt;&lt;div&gt;2. Login&lt;/div&gt;&lt;div&gt;3. Exit&lt;/div&gt;&lt;/div&gt;" style="shape=parallelogram;perimeter=parallelogramPerimeter;whiteSpace=wrap;html=1;fixedSize=1;size=20;" parent="1" vertex="1">
          <mxGeometry x="605" y="190" width="140" height="80" as="geometry" />
        </mxCell>
        <mxCell id="PiIeFLG2h4lBq93euPG2-9" value="" style="endArrow=classic;html=1;rounded=0;" parent="1" source="PiIeFLG2h4lBq93euPG2-8" target="PiIeFLG2h4lBq93euPG2-10" edge="1">
          <mxGeometry width="50" height="50" relative="1" as="geometry">
            <mxPoint x="499.33" y="490" as="sourcePoint" />
            <mxPoint x="499.83" y="570" as="targetPoint" />
          </mxGeometry>
        </mxCell>
        <mxCell id="PiIeFLG2h4lBq93euPG2-10" value="Input Opsi" style="shape=parallelogram;perimeter=parallelogramPerimeter;whiteSpace=wrap;html=1;fixedSize=1;" parent="1" vertex="1">
          <mxGeometry x="615" y="310" width="120" height="60" as="geometry" />
        </mxCell>
        <mxCell id="PiIeFLG2h4lBq93euPG2-11" value="" style="endArrow=classic;html=1;rounded=0;" parent="1" source="PiIeFLG2h4lBq93euPG2-10" target="PiIeFLG2h4lBq93euPG2-12" edge="1">
          <mxGeometry width="50" height="50" relative="1" as="geometry">
            <mxPoint x="500.33" y="630" as="sourcePoint" />
            <mxPoint x="500.33" y="690" as="targetPoint" />
          </mxGeometry>
        </mxCell>
        <mxCell id="SLBI1XKWDgRPpPdHED_y-11" style="edgeStyle=orthogonalEdgeStyle;rounded=0;orthogonalLoop=1;jettySize=auto;html=1;exitX=1;exitY=0.5;exitDx=0;exitDy=0;entryX=0.5;entryY=0;entryDx=0;entryDy=0;" parent="1" source="PiIeFLG2h4lBq93euPG2-12" target="PiIeFLG2h4lBq93euPG2-23" edge="1">
          <mxGeometry relative="1" as="geometry" />
        </mxCell>
        <mxCell id="SLBI1XKWDgRPpPdHED_y-15" value="&lt;b&gt;False&lt;/b&gt;" style="edgeLabel;html=1;align=center;verticalAlign=middle;resizable=0;points=[];" parent="SLBI1XKWDgRPpPdHED_y-11" vertex="1" connectable="0">
          <mxGeometry x="-0.2785" relative="1" as="geometry">
            <mxPoint x="-1" as="offset" />
          </mxGeometry>
        </mxCell>
        <mxCell id="PiIeFLG2h4lBq93euPG2-12" value="Opsi = 1" style="rhombus;whiteSpace=wrap;html=1;" parent="1" vertex="1">
          <mxGeometry x="636" y="410" width="80" height="80" as="geometry" />
        </mxCell>
        <mxCell id="PiIeFLG2h4lBq93euPG2-13" value="" style="endArrow=classic;html=1;rounded=0;" parent="1" source="PiIeFLG2h4lBq93euPG2-12" target="PiIeFLG2h4lBq93euPG2-14" edge="1">
          <mxGeometry width="50" height="50" relative="1" as="geometry">
            <mxPoint x="500.33" y="770" as="sourcePoint" />
            <mxPoint x="520" y="660" as="targetPoint" />
            <Array as="points" />
          </mxGeometry>
        </mxCell>
        <mxCell id="SLBI1XKWDgRPpPdHED_y-16" value="&lt;font style=&quot;font-size: 17px;&quot;&gt;True&lt;/font&gt;" style="edgeLabel;html=1;align=center;verticalAlign=middle;resizable=0;points=[];" parent="PiIeFLG2h4lBq93euPG2-13" vertex="1" connectable="0">
          <mxGeometry x="-0.1746" relative="1" as="geometry">
            <mxPoint as="offset" />
          </mxGeometry>
        </mxCell>
        <mxCell id="SLBI1XKWDgRPpPdHED_y-7" value="" style="edgeStyle=orthogonalEdgeStyle;rounded=0;orthogonalLoop=1;jettySize=auto;html=1;" parent="1" source="PiIeFLG2h4lBq93euPG2-14" target="SLBI1XKWDgRPpPdHED_y-6" edge="1">
          <mxGeometry relative="1" as="geometry" />
        </mxCell>
        <mxCell id="PiIeFLG2h4lBq93euPG2-14" value="Input :&lt;div&gt;Username&lt;/div&gt;&lt;div&gt;Password&lt;/div&gt;&lt;div&gt;Role&lt;/div&gt;" style="shape=parallelogram;perimeter=parallelogramPerimeter;whiteSpace=wrap;html=1;fixedSize=1;" parent="1" vertex="1">
          <mxGeometry x="616" y="610" width="120" height="60" as="geometry" />
        </mxCell>
        <mxCell id="PiIeFLG2h4lBq93euPG2-17" style="edgeStyle=orthogonalEdgeStyle;rounded=0;orthogonalLoop=1;jettySize=auto;html=1;exitX=0.5;exitY=1;exitDx=0;exitDy=0;" parent="1" source="PiIeFLG2h4lBq93euPG2-6" target="PiIeFLG2h4lBq93euPG2-6" edge="1">
          <mxGeometry relative="1" as="geometry" />
        </mxCell>
        <mxCell id="gMm3dsdUHFEkHUgvY5EG-31" style="edgeStyle=orthogonalEdgeStyle;rounded=0;orthogonalLoop=1;jettySize=auto;html=1;exitX=1;exitY=0.5;exitDx=0;exitDy=0;entryX=0.5;entryY=0;entryDx=0;entryDy=0;" parent="1" source="PiIeFLG2h4lBq93euPG2-23" target="gMm3dsdUHFEkHUgvY5EG-30" edge="1">
          <mxGeometry relative="1" as="geometry" />
        </mxCell>
        <mxCell id="SLBI1XKWDgRPpPdHED_y-14" value="False" style="edgeLabel;html=1;align=center;verticalAlign=middle;resizable=0;points=[];" parent="gMm3dsdUHFEkHUgvY5EG-31" vertex="1" connectable="0">
          <mxGeometry x="-0.0437" y="1" relative="1" as="geometry">
            <mxPoint as="offset" />
          </mxGeometry>
        </mxCell>
        <mxCell id="SLBI1XKWDgRPpPdHED_y-17" style="edgeStyle=orthogonalEdgeStyle;rounded=0;orthogonalLoop=1;jettySize=auto;html=1;exitX=0.5;exitY=1;exitDx=0;exitDy=0;" parent="1" source="PiIeFLG2h4lBq93euPG2-23" target="PiIeFLG2h4lBq93euPG2-25" edge="1">
          <mxGeometry relative="1" as="geometry" />
        </mxCell>
        <mxCell id="PiIeFLG2h4lBq93euPG2-23" value="Opsi = 2" style="rhombus;whiteSpace=wrap;html=1;" parent="1" vertex="1">
          <mxGeometry x="760" y="628" width="80" height="80" as="geometry" />
        </mxCell>
        <mxCell id="SLBI1XKWDgRPpPdHED_y-18" style="edgeStyle=orthogonalEdgeStyle;rounded=0;orthogonalLoop=1;jettySize=auto;html=1;exitX=0.5;exitY=1;exitDx=0;exitDy=0;" parent="1" source="PiIeFLG2h4lBq93euPG2-25" target="PiIeFLG2h4lBq93euPG2-31" edge="1">
          <mxGeometry relative="1" as="geometry" />
        </mxCell>
        <mxCell id="PiIeFLG2h4lBq93euPG2-25" value="Input :&lt;div&gt;Username&lt;/div&gt;&lt;div&gt;Password&lt;/div&gt;" style="shape=parallelogram;perimeter=parallelogramPerimeter;whiteSpace=wrap;html=1;fixedSize=1;" parent="1" vertex="1">
          <mxGeometry x="740" y="740" width="120" height="60" as="geometry" />
        </mxCell>
        <mxCell id="SLBI1XKWDgRPpPdHED_y-19" style="edgeStyle=orthogonalEdgeStyle;rounded=0;orthogonalLoop=1;jettySize=auto;html=1;exitX=0.5;exitY=1;exitDx=0;exitDy=0;" parent="1" source="PiIeFLG2h4lBq93euPG2-31" target="PiIeFLG2h4lBq93euPG2-33" edge="1">
          <mxGeometry relative="1" as="geometry" />
        </mxCell>
        <mxCell id="SLBI1XKWDgRPpPdHED_y-58" style="edgeStyle=orthogonalEdgeStyle;rounded=0;orthogonalLoop=1;jettySize=auto;html=1;exitX=1;exitY=0.5;exitDx=0;exitDy=0;entryX=0.5;entryY=0;entryDx=0;entryDy=0;" parent="1" source="PiIeFLG2h4lBq93euPG2-31" target="gMm3dsdUHFEkHUgvY5EG-15" edge="1">
          <mxGeometry relative="1" as="geometry" />
        </mxCell>
        <mxCell id="SLBI1XKWDgRPpPdHED_y-59" value="False" style="edgeLabel;html=1;align=center;verticalAlign=middle;resizable=0;points=[];" parent="SLBI1XKWDgRPpPdHED_y-58" vertex="1" connectable="0">
          <mxGeometry x="-0.2245" y="2" relative="1" as="geometry">
            <mxPoint as="offset" />
          </mxGeometry>
        </mxCell>
        <mxCell id="PiIeFLG2h4lBq93euPG2-31" value="&lt;font style=&quot;font-size: 11px;&quot;&gt;Username == admin&lt;/font&gt;&lt;div style=&quot;font-size: 11px; line-height: 80%;&quot;&gt;&lt;font style=&quot;font-size: 11px;&quot;&gt;Password == admin&lt;/font&gt;&lt;/div&gt;" style="rhombus;whiteSpace=wrap;html=1;" parent="1" vertex="1">
          <mxGeometry x="740" y="840" width="120" height="120" as="geometry" />
        </mxCell>
        <mxCell id="SLBI1XKWDgRPpPdHED_y-20" style="edgeStyle=orthogonalEdgeStyle;rounded=0;orthogonalLoop=1;jettySize=auto;html=1;exitX=0.5;exitY=1;exitDx=0;exitDy=0;" parent="1" source="PiIeFLG2h4lBq93euPG2-33" target="PiIeFLG2h4lBq93euPG2-35" edge="1">
          <mxGeometry relative="1" as="geometry" />
        </mxCell>
        <mxCell id="PiIeFLG2h4lBq93euPG2-33" value="&lt;font style=&quot;font-size: 11px;&quot;&gt;Output :&lt;/font&gt;&lt;div style=&quot;font-size: 11px;&quot;&gt;&lt;font style=&quot;font-size: 11px;&quot;&gt;Menu penjual&lt;/font&gt;&lt;/div&gt;&lt;div style=&quot;font-size: 11px;&quot;&gt;&lt;font style=&quot;font-size: 11px;&quot;&gt;1. Tambah Konser&lt;/font&gt;&lt;/div&gt;&lt;div style=&quot;font-size: 11px;&quot;&gt;&lt;font style=&quot;font-size: 11px;&quot;&gt;2. Lihat Konser&lt;/font&gt;&lt;/div&gt;&lt;div style=&quot;font-size: 11px;&quot;&gt;&lt;font style=&quot;font-size: 11px;&quot;&gt;3. Edit Konser&lt;/font&gt;&lt;/div&gt;&lt;div style=&quot;font-size: 11px;&quot;&gt;&lt;font style=&quot;font-size: 11px;&quot;&gt;4. Hapus Konser&lt;/font&gt;&lt;/div&gt;&lt;div style=&quot;font-size: 11px;&quot;&gt;&lt;font style=&quot;font-size: 11px;&quot;&gt;5. Lihat Statistika&lt;/font&gt;&lt;/div&gt;&lt;div style=&quot;font-size: 11px;&quot;&gt;&lt;font style=&quot;font-size: 11px;&quot;&gt;6. Exit&lt;/font&gt;&lt;/div&gt;" style="shape=parallelogram;perimeter=parallelogramPerimeter;whiteSpace=wrap;html=1;fixedSize=1;" parent="1" vertex="1">
          <mxGeometry x="690" y="980" width="220" height="110" as="geometry" />
        </mxCell>
        <mxCell id="SLBI1XKWDgRPpPdHED_y-21" style="edgeStyle=orthogonalEdgeStyle;rounded=0;orthogonalLoop=1;jettySize=auto;html=1;exitX=0.5;exitY=1;exitDx=0;exitDy=0;" parent="1" source="PiIeFLG2h4lBq93euPG2-35" target="PiIeFLG2h4lBq93euPG2-37" edge="1">
          <mxGeometry relative="1" as="geometry" />
        </mxCell>
        <mxCell id="PiIeFLG2h4lBq93euPG2-35" value="&lt;div&gt;Input opsi :&lt;/div&gt;" style="shape=parallelogram;perimeter=parallelogramPerimeter;whiteSpace=wrap;html=1;fixedSize=1;" parent="1" vertex="1">
          <mxGeometry x="735" y="1240" width="130" height="40" as="geometry" />
        </mxCell>
        <mxCell id="SLBI1XKWDgRPpPdHED_y-22" style="edgeStyle=orthogonalEdgeStyle;rounded=0;orthogonalLoop=1;jettySize=auto;html=1;exitX=0.5;exitY=1;exitDx=0;exitDy=0;" parent="1" source="PiIeFLG2h4lBq93euPG2-37" target="gMm3dsdUHFEkHUgvY5EG-6" edge="1">
          <mxGeometry relative="1" as="geometry" />
        </mxCell>
        <mxCell id="SLBI1XKWDgRPpPdHED_y-25" style="edgeStyle=orthogonalEdgeStyle;rounded=0;orthogonalLoop=1;jettySize=auto;html=1;exitX=1;exitY=0.5;exitDx=0;exitDy=0;entryX=0.5;entryY=0;entryDx=0;entryDy=0;" parent="1" source="PiIeFLG2h4lBq93euPG2-37" target="PiIeFLG2h4lBq93euPG2-46" edge="1">
          <mxGeometry relative="1" as="geometry" />
        </mxCell>
        <mxCell id="SLBI1XKWDgRPpPdHED_y-53" value="False" style="edgeLabel;html=1;align=center;verticalAlign=middle;resizable=0;points=[];" parent="SLBI1XKWDgRPpPdHED_y-25" vertex="1" connectable="0">
          <mxGeometry x="-0.212" y="2" relative="1" as="geometry">
            <mxPoint x="-1" as="offset" />
          </mxGeometry>
        </mxCell>
        <mxCell id="PiIeFLG2h4lBq93euPG2-37" value="Opsi = 1" style="rhombus;whiteSpace=wrap;html=1;" parent="1" vertex="1">
          <mxGeometry x="760" y="1350" width="80" height="80" as="geometry" />
        </mxCell>
        <mxCell id="SLBI1XKWDgRPpPdHED_y-26" style="edgeStyle=orthogonalEdgeStyle;rounded=0;orthogonalLoop=1;jettySize=auto;html=1;exitX=0.5;exitY=1;exitDx=0;exitDy=0;" parent="1" source="PiIeFLG2h4lBq93euPG2-46" target="gMm3dsdUHFEkHUgvY5EG-5" edge="1">
          <mxGeometry relative="1" as="geometry" />
        </mxCell>
        <mxCell id="SLBI1XKWDgRPpPdHED_y-29" value="" style="edgeStyle=orthogonalEdgeStyle;rounded=0;orthogonalLoop=1;jettySize=auto;html=1;entryX=0.5;entryY=0;entryDx=0;entryDy=0;" parent="1" source="PiIeFLG2h4lBq93euPG2-46" target="PiIeFLG2h4lBq93euPG2-57" edge="1">
          <mxGeometry relative="1" as="geometry">
            <mxPoint x="1050" y="1470" as="targetPoint" />
          </mxGeometry>
        </mxCell>
        <mxCell id="SLBI1XKWDgRPpPdHED_y-54" value="False" style="edgeLabel;html=1;align=center;verticalAlign=middle;resizable=0;points=[];" parent="SLBI1XKWDgRPpPdHED_y-29" vertex="1" connectable="0">
          <mxGeometry x="-0.4189" y="1" relative="1" as="geometry">
            <mxPoint as="offset" />
          </mxGeometry>
        </mxCell>
        <mxCell id="PiIeFLG2h4lBq93euPG2-46" value="Opsi = 2" style="rhombus;whiteSpace=wrap;html=1;" parent="1" vertex="1">
          <mxGeometry x="910" y="1430" width="80" height="80" as="geometry" />
        </mxCell>
        <mxCell id="SLBI1XKWDgRPpPdHED_y-23" style="edgeStyle=orthogonalEdgeStyle;rounded=0;orthogonalLoop=1;jettySize=auto;html=1;exitX=0;exitY=0.5;exitDx=0;exitDy=0;" parent="1" source="SLBI1XKWDgRPpPdHED_y-36" target="PiIeFLG2h4lBq93euPG2-33" edge="1">
          <mxGeometry relative="1" as="geometry">
            <mxPoint x="560" y="1140" as="targetPoint" />
            <mxPoint x="740" y="1711" as="sourcePoint" />
            <Array as="points">
              <mxPoint x="561" y="1650" />
              <mxPoint x="561" y="1035" />
            </Array>
          </mxGeometry>
        </mxCell>
        <mxCell id="SLBI1XKWDgRPpPdHED_y-31" style="edgeStyle=orthogonalEdgeStyle;rounded=0;orthogonalLoop=1;jettySize=auto;html=1;exitX=0.5;exitY=1;exitDx=0;exitDy=0;" parent="1" source="PiIeFLG2h4lBq93euPG2-57" target="SLBI1XKWDgRPpPdHED_y-30" edge="1">
          <mxGeometry relative="1" as="geometry" />
        </mxCell>
        <mxCell id="SLBI1XKWDgRPpPdHED_y-38" style="edgeStyle=orthogonalEdgeStyle;rounded=0;orthogonalLoop=1;jettySize=auto;html=1;exitX=1;exitY=0.5;exitDx=0;exitDy=0;entryX=0.5;entryY=0;entryDx=0;entryDy=0;" parent="1" source="PiIeFLG2h4lBq93euPG2-57" target="PiIeFLG2h4lBq93euPG2-68" edge="1">
          <mxGeometry relative="1" as="geometry" />
        </mxCell>
        <mxCell id="SLBI1XKWDgRPpPdHED_y-55" value="False" style="edgeLabel;html=1;align=center;verticalAlign=middle;resizable=0;points=[];" parent="SLBI1XKWDgRPpPdHED_y-38" vertex="1" connectable="0">
          <mxGeometry x="-0.3052" y="2" relative="1" as="geometry">
            <mxPoint as="offset" />
          </mxGeometry>
        </mxCell>
        <mxCell id="PiIeFLG2h4lBq93euPG2-57" value="Opsi = 3" style="rhombus;whiteSpace=wrap;html=1;" parent="1" vertex="1">
          <mxGeometry x="1050" y="1510" width="80" height="80" as="geometry" />
        </mxCell>
        <mxCell id="SLBI1XKWDgRPpPdHED_y-34" style="edgeStyle=orthogonalEdgeStyle;rounded=0;orthogonalLoop=1;jettySize=auto;html=1;exitX=0;exitY=0.5;exitDx=0;exitDy=0;entryX=1;entryY=0.5;entryDx=0;entryDy=0;" parent="1" source="PiIeFLG2h4lBq93euPG2-58" target="SLBI1XKWDgRPpPdHED_y-37" edge="1">
          <mxGeometry relative="1" as="geometry">
            <mxPoint x="890" y="2040" as="targetPoint" />
          </mxGeometry>
        </mxCell>
        <mxCell id="PiIeFLG2h4lBq93euPG2-58" value="Input :&lt;div&gt;Judul Konser&lt;/div&gt;&lt;div&gt;Lokasi Konser&lt;/div&gt;&lt;div&gt;Hari/Tanggal Konser&lt;/div&gt;&lt;div&gt;Harga Tiket&lt;/div&gt;" style="shape=parallelogram;perimeter=parallelogramPerimeter;whiteSpace=wrap;html=1;fixedSize=1;" parent="1" vertex="1">
          <mxGeometry x="1020" y="1900" width="140" height="70" as="geometry" />
        </mxCell>
        <mxCell id="SLBI1XKWDgRPpPdHED_y-35" style="edgeStyle=orthogonalEdgeStyle;rounded=0;orthogonalLoop=1;jettySize=auto;html=1;exitX=0;exitY=0.5;exitDx=0;exitDy=0;" parent="1" source="SLBI1XKWDgRPpPdHED_y-37" edge="1">
          <mxGeometry relative="1" as="geometry">
            <mxPoint x="562" y="1726" as="targetPoint" />
            <mxPoint x="770" y="2036.0000000000005" as="sourcePoint" />
          </mxGeometry>
        </mxCell>
        <mxCell id="SLBI1XKWDgRPpPdHED_y-33" style="edgeStyle=orthogonalEdgeStyle;rounded=0;orthogonalLoop=1;jettySize=auto;html=1;exitX=0.5;exitY=1;exitDx=0;exitDy=0;entryX=0.5;entryY=0;entryDx=0;entryDy=0;" parent="1" source="PiIeFLG2h4lBq93euPG2-61" target="PiIeFLG2h4lBq93euPG2-58" edge="1">
          <mxGeometry relative="1" as="geometry" />
        </mxCell>
        <mxCell id="PiIeFLG2h4lBq93euPG2-61" value="Input :&lt;div style=&quot;font-size: 9px;&quot;&gt;Data Baru Yang Mau Di Update&lt;/div&gt;" style="shape=parallelogram;perimeter=parallelogramPerimeter;whiteSpace=wrap;html=1;fixedSize=1;" parent="1" vertex="1">
          <mxGeometry x="1030" y="1820" width="120" height="60" as="geometry" />
        </mxCell>
        <mxCell id="SLBI1XKWDgRPpPdHED_y-44" style="edgeStyle=orthogonalEdgeStyle;rounded=0;orthogonalLoop=1;jettySize=auto;html=1;exitX=0.5;exitY=1;exitDx=0;exitDy=0;" parent="1" source="PiIeFLG2h4lBq93euPG2-68" target="SLBI1XKWDgRPpPdHED_y-41" edge="1">
          <mxGeometry relative="1" as="geometry" />
        </mxCell>
        <mxCell id="SLBI1XKWDgRPpPdHED_y-49" style="edgeStyle=orthogonalEdgeStyle;rounded=0;orthogonalLoop=1;jettySize=auto;html=1;exitX=1;exitY=0.5;exitDx=0;exitDy=0;entryX=0.5;entryY=0;entryDx=0;entryDy=0;" parent="1" source="PiIeFLG2h4lBq93euPG2-68" target="PiIeFLG2h4lBq93euPG2-77" edge="1">
          <mxGeometry relative="1" as="geometry" />
        </mxCell>
        <mxCell id="SLBI1XKWDgRPpPdHED_y-56" value="False" style="edgeLabel;html=1;align=center;verticalAlign=middle;resizable=0;points=[];" parent="SLBI1XKWDgRPpPdHED_y-49" vertex="1" connectable="0">
          <mxGeometry x="-0.4267" y="1" relative="1" as="geometry">
            <mxPoint as="offset" />
          </mxGeometry>
        </mxCell>
        <mxCell id="PiIeFLG2h4lBq93euPG2-68" value="Opsi = 4" style="rhombus;whiteSpace=wrap;html=1;" parent="1" vertex="1">
          <mxGeometry x="1170" y="1590" width="80" height="80" as="geometry" />
        </mxCell>
        <mxCell id="SLBI1XKWDgRPpPdHED_y-46" style="edgeStyle=orthogonalEdgeStyle;rounded=0;orthogonalLoop=1;jettySize=auto;html=1;exitX=0;exitY=0.5;exitDx=0;exitDy=0;" parent="1" source="PiIeFLG2h4lBq93euPG2-70" target="SLBI1XKWDgRPpPdHED_y-43" edge="1">
          <mxGeometry relative="1" as="geometry" />
        </mxCell>
        <mxCell id="PiIeFLG2h4lBq93euPG2-70" value="Input :&lt;div&gt;Pilih data yang mau dihapus&lt;/div&gt;" style="shape=parallelogram;perimeter=parallelogramPerimeter;whiteSpace=wrap;html=1;fixedSize=1;" parent="1" vertex="1">
          <mxGeometry x="1135" y="2090" width="150" height="70" as="geometry" />
        </mxCell>
        <mxCell id="fPAqoZodzVnTv5eMYKu1-5" value="" style="edgeStyle=orthogonalEdgeStyle;rounded=0;orthogonalLoop=1;jettySize=auto;html=1;" parent="1" source="PiIeFLG2h4lBq93euPG2-77" target="fPAqoZodzVnTv5eMYKu1-4" edge="1">
          <mxGeometry relative="1" as="geometry" />
        </mxCell>
        <mxCell id="SLBI1XKWDgRPpPdHED_y-50" style="edgeStyle=orthogonalEdgeStyle;rounded=0;orthogonalLoop=1;jettySize=auto;html=1;exitX=1;exitY=0.5;exitDx=0;exitDy=0;entryX=0.5;entryY=0;entryDx=0;entryDy=0;" parent="1" source="PiIeFLG2h4lBq93euPG2-77" target="fPAqoZodzVnTv5eMYKu1-7" edge="1">
          <mxGeometry relative="1" as="geometry" />
        </mxCell>
        <mxCell id="SLBI1XKWDgRPpPdHED_y-57" value="False" style="edgeLabel;html=1;align=center;verticalAlign=middle;resizable=0;points=[];" parent="SLBI1XKWDgRPpPdHED_y-50" vertex="1" connectable="0">
          <mxGeometry x="-0.3344" relative="1" as="geometry">
            <mxPoint as="offset" />
          </mxGeometry>
        </mxCell>
        <mxCell id="PiIeFLG2h4lBq93euPG2-77" value="Opsi = 5" style="rhombus;whiteSpace=wrap;html=1;" parent="1" vertex="1">
          <mxGeometry x="1285" y="1670" width="80" height="80" as="geometry" />
        </mxCell>
        <mxCell id="SLBI1XKWDgRPpPdHED_y-76" style="edgeStyle=orthogonalEdgeStyle;rounded=0;orthogonalLoop=1;jettySize=auto;html=1;exitX=1;exitY=0.5;exitDx=0;exitDy=0;entryX=1;entryY=0.5;entryDx=0;entryDy=0;" parent="1" source="PiIeFLG2h4lBq93euPG2-81" target="PiIeFLG2h4lBq93euPG2-33" edge="1">
          <mxGeometry relative="1" as="geometry">
            <mxPoint x="1290" y="1380" as="targetPoint" />
            <Array as="points">
              <mxPoint x="1810" y="1865" />
              <mxPoint x="1810" y="1580" />
              <mxPoint x="1290" y="1580" />
              <mxPoint x="1290" y="1035" />
            </Array>
          </mxGeometry>
        </mxCell>
        <mxCell id="PiIeFLG2h4lBq93euPG2-81" value="Output :&lt;div&gt;Menu tidak valid&lt;/div&gt;" style="shape=parallelogram;perimeter=parallelogramPerimeter;whiteSpace=wrap;html=1;fixedSize=1;" parent="1" vertex="1">
          <mxGeometry x="1640" y="1840" width="130" height="50" as="geometry" />
        </mxCell>
        <mxCell id="SLBI1XKWDgRPpPdHED_y-27" style="edgeStyle=orthogonalEdgeStyle;rounded=0;orthogonalLoop=1;jettySize=auto;html=1;exitX=0;exitY=0.5;exitDx=0;exitDy=0;" parent="1" source="gMm3dsdUHFEkHUgvY5EG-5" edge="1">
          <mxGeometry relative="1" as="geometry">
            <mxPoint x="561" y="1650" as="targetPoint" />
          </mxGeometry>
        </mxCell>
        <mxCell id="gMm3dsdUHFEkHUgvY5EG-5" value="&lt;div&gt;Output :&lt;/div&gt;&lt;div&gt;Judul Konser&lt;/div&gt;&lt;div&gt;Lokasi Konser&lt;/div&gt;&lt;div&gt;Hari/Tanggal Konser&lt;/div&gt;&lt;div&gt;Harga Tiket&lt;/div&gt;" style="shape=parallelogram;perimeter=parallelogramPerimeter;whiteSpace=wrap;html=1;fixedSize=1;" parent="1" vertex="1">
          <mxGeometry x="880" y="1690" width="140" height="70" as="geometry" />
        </mxCell>
        <mxCell id="gMm3dsdUHFEkHUgvY5EG-9" style="edgeStyle=orthogonalEdgeStyle;rounded=0;orthogonalLoop=1;jettySize=auto;html=1;entryX=0.5;entryY=0;entryDx=0;entryDy=0;" parent="1" target="SLBI1XKWDgRPpPdHED_y-36" edge="1">
          <mxGeometry relative="1" as="geometry">
            <mxPoint x="830" y="1520" as="sourcePoint" />
            <mxPoint x="800" y="1681" as="targetPoint" />
          </mxGeometry>
        </mxCell>
        <mxCell id="gMm3dsdUHFEkHUgvY5EG-6" value="Input :&lt;div&gt;Judul Konser :&lt;/div&gt;&lt;div&gt;Lokasi Konser :&lt;/div&gt;&lt;div&gt;Hari/Tanggal Konser :&lt;/div&gt;&lt;div&gt;Harga Tiket :&lt;/div&gt;" style="shape=parallelogram;perimeter=parallelogramPerimeter;whiteSpace=wrap;html=1;fixedSize=1;" parent="1" vertex="1">
          <mxGeometry x="730" y="1500" width="140" height="70" as="geometry" />
        </mxCell>
        <mxCell id="gMm3dsdUHFEkHUgvY5EG-15" value="pengguna" style="rhombus;whiteSpace=wrap;html=1;" parent="1" vertex="1">
          <mxGeometry x="1740" y="920" width="80" height="80" as="geometry" />
        </mxCell>
        <mxCell id="SLBI1XKWDgRPpPdHED_y-64" style="edgeStyle=orthogonalEdgeStyle;rounded=0;orthogonalLoop=1;jettySize=auto;html=1;exitX=0.5;exitY=1;exitDx=0;exitDy=0;entryX=0.5;entryY=0;entryDx=0;entryDy=0;" parent="1" source="gMm3dsdUHFEkHUgvY5EG-16" target="fPAqoZodzVnTv5eMYKu1-1" edge="1">
          <mxGeometry relative="1" as="geometry" />
        </mxCell>
        <mxCell id="gMm3dsdUHFEkHUgvY5EG-16" value="&lt;font style=&quot;font-size: 11px;&quot;&gt;Output :&lt;/font&gt;&lt;div style=&quot;font-size: 11px;&quot;&gt;&lt;font style=&quot;font-size: 11px;&quot;&gt;Menu pembeli&lt;/font&gt;&lt;/div&gt;&lt;div style=&quot;font-size: 11px;&quot;&gt;&lt;font style=&quot;font-size: 11px;&quot;&gt;1. BookingTiket Konser&lt;/font&gt;&lt;/div&gt;&lt;div style=&quot;font-size: 11px;&quot;&gt;&lt;font style=&quot;font-size: 11px;&quot;&gt;2. Lihat Tiket Konser Yang Sudah Di Booking&lt;/font&gt;&lt;/div&gt;&lt;div style=&quot;font-size: 11px;&quot;&gt;&lt;font style=&quot;font-size: 11px;&quot;&gt;6. Exit&lt;/font&gt;&lt;/div&gt;" style="shape=parallelogram;perimeter=parallelogramPerimeter;whiteSpace=wrap;html=1;fixedSize=1;" parent="1" vertex="1">
          <mxGeometry x="1682.5" y="1010" width="195" height="80" as="geometry" />
        </mxCell>
        <mxCell id="gMm3dsdUHFEkHUgvY5EG-17" value="" style="endArrow=classic;html=1;rounded=0;entryX=0.5;entryY=0;entryDx=0;entryDy=0;" parent="1" source="gMm3dsdUHFEkHUgvY5EG-15" target="gMm3dsdUHFEkHUgvY5EG-16" edge="1">
          <mxGeometry width="50" height="50" relative="1" as="geometry">
            <mxPoint x="1490" y="1050" as="sourcePoint" />
            <mxPoint x="1540" y="1000" as="targetPoint" />
          </mxGeometry>
        </mxCell>
        <mxCell id="SLBI1XKWDgRPpPdHED_y-67" style="edgeStyle=orthogonalEdgeStyle;rounded=0;orthogonalLoop=1;jettySize=auto;html=1;exitX=0.5;exitY=1;exitDx=0;exitDy=0;" parent="1" source="gMm3dsdUHFEkHUgvY5EG-18" target="SLBI1XKWDgRPpPdHED_y-66" edge="1">
          <mxGeometry relative="1" as="geometry" />
        </mxCell>
        <mxCell id="gMm3dsdUHFEkHUgvY5EG-18" value="Opsi = 1" style="rhombus;whiteSpace=wrap;html=1;" parent="1" vertex="1">
          <mxGeometry x="1750" y="1170" width="60" height="50" as="geometry" />
        </mxCell>
        <mxCell id="SLBI1XKWDgRPpPdHED_y-70" value="" style="edgeStyle=orthogonalEdgeStyle;rounded=0;orthogonalLoop=1;jettySize=auto;html=1;" parent="1" source="gMm3dsdUHFEkHUgvY5EG-20" target="SLBI1XKWDgRPpPdHED_y-69" edge="1">
          <mxGeometry relative="1" as="geometry" />
        </mxCell>
        <mxCell id="gMm3dsdUHFEkHUgvY5EG-20" value="&lt;span style=&quot;font-size: 8px;&quot;&gt;Input :&lt;/span&gt;&lt;div&gt;&lt;span style=&quot;font-size: 8px;&quot;&gt;Pilih Konser Yang Tersedia&lt;/span&gt;&lt;/div&gt;" style="shape=parallelogram;perimeter=parallelogramPerimeter;whiteSpace=wrap;html=1;fixedSize=1;" parent="1" vertex="1">
          <mxGeometry x="1733.75" y="1350" width="92.5" height="50" as="geometry" />
        </mxCell>
        <mxCell id="gMm3dsdUHFEkHUgvY5EG-27" style="edgeStyle=orthogonalEdgeStyle;rounded=0;orthogonalLoop=1;jettySize=auto;html=1;exitX=0.5;exitY=1;exitDx=0;exitDy=0;entryX=0.5;entryY=0;entryDx=0;entryDy=0;" parent="1" source="gMm3dsdUHFEkHUgvY5EG-24" target="gMm3dsdUHFEkHUgvY5EG-25" edge="1">
          <mxGeometry relative="1" as="geometry" />
        </mxCell>
        <mxCell id="SLBI1XKWDgRPpPdHED_y-78" value="" style="edgeStyle=orthogonalEdgeStyle;rounded=0;orthogonalLoop=1;jettySize=auto;html=1;" parent="1" source="gMm3dsdUHFEkHUgvY5EG-24" target="SLBI1XKWDgRPpPdHED_y-77" edge="1">
          <mxGeometry relative="1" as="geometry" />
        </mxCell>
        <mxCell id="F9N7ftuM7KPR-1f3FbT9-2" value="False" style="edgeLabel;html=1;align=center;verticalAlign=middle;resizable=0;points=[];" vertex="1" connectable="0" parent="SLBI1XKWDgRPpPdHED_y-78">
          <mxGeometry x="-0.5918" y="2" relative="1" as="geometry">
            <mxPoint as="offset" />
          </mxGeometry>
        </mxCell>
        <mxCell id="gMm3dsdUHFEkHUgvY5EG-24" value="Opsi = 2" style="rhombus;whiteSpace=wrap;html=1;" parent="1" vertex="1">
          <mxGeometry x="1870" y="1230" width="60" height="50" as="geometry" />
        </mxCell>
        <mxCell id="SLBI1XKWDgRPpPdHED_y-74" style="edgeStyle=orthogonalEdgeStyle;rounded=0;orthogonalLoop=1;jettySize=auto;html=1;exitX=0;exitY=0.5;exitDx=0;exitDy=0;" parent="1" source="gMm3dsdUHFEkHUgvY5EG-25" edge="1">
          <mxGeometry relative="1" as="geometry">
            <mxPoint x="1600" y="1368.2569795496324" as="targetPoint" />
          </mxGeometry>
        </mxCell>
        <mxCell id="gMm3dsdUHFEkHUgvY5EG-25" value="&lt;div style=&quot;font-size: 6px;&quot;&gt;Output :&lt;/div&gt;&lt;div style=&quot;font-size: 6px;&quot;&gt;Judul Konser&lt;/div&gt;&lt;div style=&quot;font-size: 6px;&quot;&gt;Lokasi Konser&lt;/div&gt;&lt;div style=&quot;font-size: 6px;&quot;&gt;Hari/Tanggal Konser&lt;/div&gt;&lt;div style=&quot;font-size: 6px;&quot;&gt;Harga Tiket&lt;/div&gt;" style="shape=parallelogram;perimeter=parallelogramPerimeter;whiteSpace=wrap;html=1;fixedSize=1;" parent="1" vertex="1">
          <mxGeometry x="1852.13" y="1420" width="95.75" height="43" as="geometry" />
        </mxCell>
        <mxCell id="gMm3dsdUHFEkHUgvY5EG-33" value="" style="edgeStyle=orthogonalEdgeStyle;rounded=0;orthogonalLoop=1;jettySize=auto;html=1;" parent="1" source="gMm3dsdUHFEkHUgvY5EG-30" target="gMm3dsdUHFEkHUgvY5EG-32" edge="1">
          <mxGeometry relative="1" as="geometry">
            <mxPoint x="1740" y="2710" as="targetPoint" />
            <Array as="points">
              <mxPoint x="2391" y="2440" />
              <mxPoint x="485" y="2440" />
            </Array>
          </mxGeometry>
        </mxCell>
        <mxCell id="gMm3dsdUHFEkHUgvY5EG-30" value="Opsi = 3" style="rhombus;whiteSpace=wrap;html=1;" parent="1" vertex="1">
          <mxGeometry x="2350" y="708" width="80" height="80" as="geometry" />
        </mxCell>
        <mxCell id="gMm3dsdUHFEkHUgvY5EG-32" value="End" style="ellipse;whiteSpace=wrap;html=1;" parent="1" vertex="1">
          <mxGeometry x="410" y="2400" width="110" height="80" as="geometry" />
        </mxCell>
        <mxCell id="SLBI1XKWDgRPpPdHED_y-65" style="edgeStyle=orthogonalEdgeStyle;rounded=0;orthogonalLoop=1;jettySize=auto;html=1;exitX=0.5;exitY=1;exitDx=0;exitDy=0;" parent="1" source="fPAqoZodzVnTv5eMYKu1-1" target="gMm3dsdUHFEkHUgvY5EG-18" edge="1">
          <mxGeometry relative="1" as="geometry" />
        </mxCell>
        <mxCell id="fPAqoZodzVnTv5eMYKu1-1" value="&lt;div&gt;Input opsi :&lt;/div&gt;" style="shape=parallelogram;perimeter=parallelogramPerimeter;whiteSpace=wrap;html=1;fixedSize=1;" parent="1" vertex="1">
          <mxGeometry x="1715" y="1110" width="130" height="40" as="geometry" />
        </mxCell>
        <mxCell id="SLBI1XKWDgRPpPdHED_y-48" style="edgeStyle=orthogonalEdgeStyle;rounded=0;orthogonalLoop=1;jettySize=auto;html=1;" parent="1" source="fPAqoZodzVnTv5eMYKu1-4" edge="1">
          <mxGeometry relative="1" as="geometry">
            <mxPoint x="562" y="2121" as="targetPoint" />
            <mxPoint x="1263" y="2218" as="sourcePoint" />
            <Array as="points">
              <mxPoint x="563" y="2218" />
              <mxPoint x="563" y="2121" />
            </Array>
          </mxGeometry>
        </mxCell>
        <mxCell id="fPAqoZodzVnTv5eMYKu1-4" value="&lt;div&gt;Output :&lt;/div&gt;&lt;div&gt;Total Konser&lt;/div&gt;&lt;div&gt;Total Tiket Terjual&lt;/div&gt;&lt;div&gt;Total Pendapatan&lt;/div&gt;" style="shape=parallelogram;perimeter=parallelogramPerimeter;whiteSpace=wrap;html=1;fixedSize=1;" parent="1" vertex="1">
          <mxGeometry x="1255" y="2190" width="140" height="70" as="geometry" />
        </mxCell>
        <mxCell id="fPAqoZodzVnTv5eMYKu1-8" value="" style="edgeStyle=orthogonalEdgeStyle;rounded=0;orthogonalLoop=1;jettySize=auto;html=1;" parent="1" source="fPAqoZodzVnTv5eMYKu1-7" target="PiIeFLG2h4lBq93euPG2-81" edge="1">
          <mxGeometry relative="1" as="geometry" />
        </mxCell>
        <mxCell id="SLBI1XKWDgRPpPdHED_y-60" style="edgeStyle=orthogonalEdgeStyle;rounded=0;orthogonalLoop=1;jettySize=auto;html=1;exitX=0.5;exitY=1;exitDx=0;exitDy=0;" parent="1" source="fPAqoZodzVnTv5eMYKu1-7" edge="1">
          <mxGeometry relative="1" as="geometry">
            <mxPoint x="370" y="230" as="targetPoint" />
            <Array as="points">
              <mxPoint x="1590" y="2300" />
              <mxPoint x="150" y="2300" />
              <mxPoint x="150" y="230" />
            </Array>
          </mxGeometry>
        </mxCell>
        <mxCell id="SLBI1XKWDgRPpPdHED_y-62" value="&lt;b&gt;True&lt;/b&gt;" style="edgeLabel;html=1;align=center;verticalAlign=middle;resizable=0;points=[];" parent="SLBI1XKWDgRPpPdHED_y-60" vertex="1" connectable="0">
          <mxGeometry x="-0.3657" y="-8" relative="1" as="geometry">
            <mxPoint as="offset" />
          </mxGeometry>
        </mxCell>
        <mxCell id="fPAqoZodzVnTv5eMYKu1-7" value="Opsi = 6" style="rhombus;whiteSpace=wrap;html=1;" parent="1" vertex="1">
          <mxGeometry x="1550" y="1740" width="80" height="80" as="geometry" />
        </mxCell>
        <mxCell id="SLBI1XKWDgRPpPdHED_y-10" style="edgeStyle=orthogonalEdgeStyle;rounded=0;orthogonalLoop=1;jettySize=auto;html=1;" parent="1" source="SLBI1XKWDgRPpPdHED_y-6" target="PiIeFLG2h4lBq93euPG2-8" edge="1">
          <mxGeometry relative="1" as="geometry">
            <mxPoint x="120" y="180" as="targetPoint" />
            <Array as="points">
              <mxPoint x="370" y="560" />
              <mxPoint x="370" y="230" />
            </Array>
          </mxGeometry>
        </mxCell>
        <mxCell id="SLBI1XKWDgRPpPdHED_y-6" value="Proses Masuk Ke Data" style="whiteSpace=wrap;html=1;" parent="1" vertex="1">
          <mxGeometry x="310" y="610" width="120" height="60" as="geometry" />
        </mxCell>
        <mxCell id="SLBI1XKWDgRPpPdHED_y-32" style="edgeStyle=orthogonalEdgeStyle;rounded=0;orthogonalLoop=1;jettySize=auto;html=1;exitX=0.5;exitY=1;exitDx=0;exitDy=0;" parent="1" source="SLBI1XKWDgRPpPdHED_y-30" target="PiIeFLG2h4lBq93euPG2-61" edge="1">
          <mxGeometry relative="1" as="geometry" />
        </mxCell>
        <mxCell id="SLBI1XKWDgRPpPdHED_y-30" value="&lt;div&gt;Output :&lt;/div&gt;&lt;div&gt;Judul Konser&lt;/div&gt;&lt;div&gt;Lokasi Konser&lt;/div&gt;&lt;div&gt;Hari/Tanggal Konser&lt;/div&gt;&lt;div&gt;Harga Tiket&lt;/div&gt;" style="shape=parallelogram;perimeter=parallelogramPerimeter;whiteSpace=wrap;html=1;fixedSize=1;" parent="1" vertex="1">
          <mxGeometry x="1020" y="1720" width="140" height="70" as="geometry" />
        </mxCell>
        <mxCell id="SLBI1XKWDgRPpPdHED_y-36" value="Hasil Input masuk ke data" style="rounded=0;whiteSpace=wrap;html=1;" parent="1" vertex="1">
          <mxGeometry x="740" y="1620" width="120" height="60" as="geometry" />
        </mxCell>
        <mxCell id="SLBI1XKWDgRPpPdHED_y-37" value="Update data sesuai dengan input" style="rounded=0;whiteSpace=wrap;html=1;" parent="1" vertex="1">
          <mxGeometry x="810" y="1905" width="120" height="60" as="geometry" />
        </mxCell>
        <mxCell id="SLBI1XKWDgRPpPdHED_y-45" style="edgeStyle=orthogonalEdgeStyle;rounded=0;orthogonalLoop=1;jettySize=auto;html=1;exitX=0.5;exitY=1;exitDx=0;exitDy=0;" parent="1" source="SLBI1XKWDgRPpPdHED_y-41" target="PiIeFLG2h4lBq93euPG2-70" edge="1">
          <mxGeometry relative="1" as="geometry" />
        </mxCell>
        <mxCell id="SLBI1XKWDgRPpPdHED_y-41" value="&lt;div&gt;Output :&lt;/div&gt;&lt;div&gt;Judul Konser&lt;/div&gt;&lt;div&gt;Lokasi Konser&lt;/div&gt;&lt;div&gt;Hari/Tanggal Konser&lt;/div&gt;&lt;div&gt;Harga Tiket&lt;/div&gt;" style="shape=parallelogram;perimeter=parallelogramPerimeter;whiteSpace=wrap;html=1;fixedSize=1;" parent="1" vertex="1">
          <mxGeometry x="1140" y="1990" width="140" height="70" as="geometry" />
        </mxCell>
        <mxCell id="SLBI1XKWDgRPpPdHED_y-47" style="edgeStyle=orthogonalEdgeStyle;rounded=0;orthogonalLoop=1;jettySize=auto;html=1;exitX=0;exitY=0.5;exitDx=0;exitDy=0;" parent="1" edge="1">
          <mxGeometry relative="1" as="geometry">
            <mxPoint x="562" y="1935" as="targetPoint" />
            <mxPoint x="812" y="2120" as="sourcePoint" />
          </mxGeometry>
        </mxCell>
        <mxCell id="SLBI1XKWDgRPpPdHED_y-43" value="Menghapus Data Yang Dipilih" style="rounded=0;whiteSpace=wrap;html=1;" parent="1" vertex="1">
          <mxGeometry x="810" y="2095" width="120" height="60" as="geometry" />
        </mxCell>
        <mxCell id="SLBI1XKWDgRPpPdHED_y-68" style="edgeStyle=orthogonalEdgeStyle;rounded=0;orthogonalLoop=1;jettySize=auto;html=1;exitX=0.5;exitY=1;exitDx=0;exitDy=0;" parent="1" source="SLBI1XKWDgRPpPdHED_y-66" target="gMm3dsdUHFEkHUgvY5EG-20" edge="1">
          <mxGeometry relative="1" as="geometry" />
        </mxCell>
        <mxCell id="SLBI1XKWDgRPpPdHED_y-66" value="&lt;div&gt;Output :&lt;/div&gt;&lt;div&gt;Judul Konser&lt;/div&gt;&lt;div&gt;Lokasi Konser&lt;/div&gt;&lt;div&gt;Hari/Tanggal Konser&lt;/div&gt;&lt;div&gt;Harga Tiket&lt;/div&gt;" style="shape=parallelogram;perimeter=parallelogramPerimeter;whiteSpace=wrap;html=1;fixedSize=1;" parent="1" vertex="1">
          <mxGeometry x="1710" y="1255" width="140" height="70" as="geometry" />
        </mxCell>
        <mxCell id="SLBI1XKWDgRPpPdHED_y-73" style="edgeStyle=orthogonalEdgeStyle;rounded=0;orthogonalLoop=1;jettySize=auto;html=1;exitX=0;exitY=0.5;exitDx=0;exitDy=0;entryX=0;entryY=0.5;entryDx=0;entryDy=0;" parent="1" source="SLBI1XKWDgRPpPdHED_y-69" target="gMm3dsdUHFEkHUgvY5EG-16" edge="1">
          <mxGeometry relative="1" as="geometry">
            <Array as="points">
              <mxPoint x="1600" y="1375" />
              <mxPoint x="1600" y="1050" />
            </Array>
          </mxGeometry>
        </mxCell>
        <mxCell id="SLBI1XKWDgRPpPdHED_y-69" value="Booking Pengguna Masuk Ke Data" style="whiteSpace=wrap;html=1;fontSize=7;" parent="1" vertex="1">
          <mxGeometry x="1620" y="1352.5" width="95" height="45" as="geometry" />
        </mxCell>
        <mxCell id="SLBI1XKWDgRPpPdHED_y-71" style="edgeStyle=orthogonalEdgeStyle;rounded=0;orthogonalLoop=1;jettySize=auto;html=1;exitX=1;exitY=0.5;exitDx=0;exitDy=0;entryX=0.5;entryY=0;entryDx=0;entryDy=0;" parent="1" source="gMm3dsdUHFEkHUgvY5EG-18" target="gMm3dsdUHFEkHUgvY5EG-24" edge="1">
          <mxGeometry relative="1" as="geometry" />
        </mxCell>
        <mxCell id="F9N7ftuM7KPR-1f3FbT9-1" value="False" style="edgeLabel;html=1;align=center;verticalAlign=middle;resizable=0;points=[];" vertex="1" connectable="0" parent="SLBI1XKWDgRPpPdHED_y-71">
          <mxGeometry x="-0.2355" relative="1" as="geometry">
            <mxPoint as="offset" />
          </mxGeometry>
        </mxCell>
        <mxCell id="SLBI1XKWDgRPpPdHED_y-79" style="edgeStyle=orthogonalEdgeStyle;rounded=0;orthogonalLoop=1;jettySize=auto;html=1;exitX=0.5;exitY=1;exitDx=0;exitDy=0;" parent="1" source="SLBI1XKWDgRPpPdHED_y-77" edge="1">
          <mxGeometry relative="1" as="geometry">
            <mxPoint x="1600" y="1440" as="targetPoint" />
            <Array as="points">
              <mxPoint x="2010" y="1520" />
              <mxPoint x="1600" y="1520" />
              <mxPoint x="1600" y="1480" />
            </Array>
          </mxGeometry>
        </mxCell>
        <mxCell id="SLBI1XKWDgRPpPdHED_y-81" value="" style="edgeStyle=orthogonalEdgeStyle;rounded=0;orthogonalLoop=1;jettySize=auto;html=1;" parent="1" source="SLBI1XKWDgRPpPdHED_y-77" target="SLBI1XKWDgRPpPdHED_y-80" edge="1">
          <mxGeometry relative="1" as="geometry" />
        </mxCell>
        <mxCell id="F9N7ftuM7KPR-1f3FbT9-4" value="False" style="edgeLabel;html=1;align=center;verticalAlign=middle;resizable=0;points=[];" vertex="1" connectable="0" parent="SLBI1XKWDgRPpPdHED_y-81">
          <mxGeometry x="-0.6884" y="1" relative="1" as="geometry">
            <mxPoint x="1" as="offset" />
          </mxGeometry>
        </mxCell>
        <mxCell id="SLBI1XKWDgRPpPdHED_y-77" value="Opsi 6" style="rhombus;whiteSpace=wrap;html=1;" parent="1" vertex="1">
          <mxGeometry x="1980" y="1325" width="60" height="50" as="geometry" />
        </mxCell>
        <mxCell id="SLBI1XKWDgRPpPdHED_y-82" style="edgeStyle=orthogonalEdgeStyle;rounded=0;orthogonalLoop=1;jettySize=auto;html=1;exitX=0;exitY=0.5;exitDx=0;exitDy=0;" parent="1" edge="1">
          <mxGeometry relative="1" as="geometry">
            <mxPoint x="1600" y="1519" as="targetPoint" />
            <mxPoint x="2090" y="1549.0000000000002" as="sourcePoint" />
            <Array as="points">
              <mxPoint x="1600" y="1549" />
            </Array>
          </mxGeometry>
        </mxCell>
        <mxCell id="SLBI1XKWDgRPpPdHED_y-80" value="output :&lt;div&gt;Menu Tidak Valid&lt;/div&gt;" style="shape=parallelogram;perimeter=parallelogramPerimeter;whiteSpace=wrap;html=1;fixedSize=1;" parent="1" vertex="1">
          <mxGeometry x="2080" y="1510" width="120" height="60" as="geometry" />
        </mxCell>
      </root>
    </mxGraphModel>
  </diagram>
</mxfile>
